<?xml version="1.0" encoding="UTF-8"?><svg version="1.1" width="61px" height="60px" viewBox="0 0 61.0 60.0" xmlns="http://www.w3.org/2000/svg" xmlns:xlink="http://www.w3.org/1999/xlink"><defs><clipPath id="i0"><path d="M360,0 L360,705 L0,705 L0,0 L360,0 Z"></path></clipPath><clipPath id="i1"><path d="M30,0 C46.5685425,0 60,13.4314575 60,30 C60,46.5685425 46.5685425,60 30,60 C13.4314575,60 0,46.5685425 0,30 C0,13.4314575 13.4314575,0 30,0 Z"></path></clipPath><clipPath id="i2"><path d="M35.7237458,0 C35.7237458,0 40.853223,2.78367966 49.2511779,5.41097283 C57.6334942,8.02262735 60.9332493,18.3910522 59.7759892,28.2590402 C59.7759892,28.2590402 51.8002778,35.5622896 30.938319,35.9688945 L30.938319,36.0001718 C30.625546,36.0001718 30.312773,35.994959 30,35.9845332 C29.687227,35.994959 29.374454,36.0001718 29.061681,36.0001718 L29.061681,35.9688945 C8.19972218,35.5622896 0.224010778,28.2590402 0.224010778,28.2590402 C-0.933249307,18.3910522 2.3665058,8.02262735 10.7488221,5.41097283 C19.146777,2.78367966 24.2762542,0 24.2762542,0 L30,0.531714093 L35.7237458,0 Z"></path></clipPath><clipPath id="i3"><path d="M7.77240895,0 L14.82544,0.703739241 C14.82544,0.703739241 14.823996,0.71199899 14.8212904,0.728162466 L14.8095711,0.800008058 C14.6758404,1.63780321 13.7842352,7.77597566 15.5291793,12.5891131 C15.5291793,12.5891131 13.1833818,15.5291793 7.77240895,15.5291793 C2.36143612,15.5291793 0,12.5891131 0,12.5891131 C1.75948528,7.77597566 0.855379753,1.63780321 0.719823001,0.800008058 L0.707944609,0.728162466 C0.705202507,0.71199899 0.703739241,0.703739241 0.703739241,0.703739241 L7.77240895,0 Z"></path></clipPath><clipPath id="i4"><path d="M7.06866971,0 L14.1217008,0.703739241 C14.1217008,0.703739241 13.5430707,4.00349435 13.8558437,7.77240895 C13.532645,8.09560771 13.2042333,8.39274206 12.8706088,8.66381199 C11.431853,9.85234937 8.72636659,10.1182064 8.0069887,10.1182064 C7.30324946,10.1182064 4.58212439,9.85234937 3.14336861,8.66381199 C2.12685637,7.83496355 1.18853738,6.75589671 0.375327595,5.55172068 C0.375327595,2.98281181 0.0483755567,0.986068999 0.00478195158,0.731253997 L0,0.703739241 L7.06866971,0 Z"></path></clipPath><clipPath id="i5"><path d="M11.8228192,0 C18.9696822,0 23.6456385,5.78630043 23.6456385,12.9331634 C23.6456385,18.2972203 21.0183453,26.0227133 16.6864393,29.5570481 C15.2476836,30.7299469 12.5421971,30.9958039 11.8228192,30.9958039 C11.11908,30.9958039 8.41359359,30.7299469 6.95919916,29.5570481 C2.62729317,26.0227133 0,18.2972203 0,12.9331634 C0,5.78630043 4.67595629,0 11.8228192,0 Z"></path></clipPath><clipPath id="i6"><path d="M8.28848439,0 C12.8706088,0 16.5926074,1.84536068 16.5926074,4.1442422 C16.5926074,6.42748507 12.8706088,8.28848439 8.28848439,8.28848439 C3.70636,8.28848439 0,6.42748507 0,4.1442422 C0,1.84536068 3.70636,0 8.28848439,0 Z"></path></clipPath><clipPath id="i7"><path d="M5.38357288,0 L6.74413542,3.53433486 C6.74413542,3.53433486 0.832725791,6.14598937 1.09858284,16.3580277 C1.09858284,16.3580277 1.06493874,16.2725321 1.00942597,16.1092233 L0.956762659,15.9503672 C0.62152324,14.9146352 -0.176322545,11.9884468 0.0351546508,8.1320979 C0.301011697,3.28411646 5.38357288,0 5.38357288,0 Z"></path></clipPath><clipPath id="i8"><path d="M1.37620118,0 C1.37620118,0 6.44312372,3.28411646 6.70898076,8.1320979 C6.97483781,12.9800793 5.66119123,16.3580277 5.66119123,16.3580277 C5.92704827,6.14598937 0,3.53433486 0,3.53433486 L1.37620118,0 Z"></path></clipPath><clipPath id="i9"><path d="M21.4104786,11.7506513 C21.4104786,11.7506513 10.9325832,4.2440994 0.0168056711,6.08946008 C0.0168056711,6.08946008 0.00439483864,6.01379404 0.000903791566,5.87815565 L0.000291256931,5.76542725 C0.0118013032,4.94220873 0.379622347,2.71776718 3.77008162,1.05381484 C10.0880961,-2.02699917 19.8778909,1.67936083 21.4104786,11.7506513 Z"></path></clipPath><clipPath id="i10"><path d="M5.28960737,0.258741285 L4.78917058,0.258741285 C4.78917058,0.258741285 5.67910554,0.365906227 6.56340024,0.522689111 L6.80375882,0.56663504 C8.11756044,0.814628138 9.23548564,1.16249063 7.13496805,1.41600137 C3.71948693,1.82999908 0.779296692,10.2260877 0.468710428,11.1407929 L0.441625932,11.2214348 C0.441625932,11.2214348 -1.02840715,4.26223563 1.39558357,1.68185842 C3.83521294,-0.898518801 5.28960737,0.258741285 5.28960737,0.258741285 Z"></path></clipPath><clipPath id="i11"><path d="M6.90220169,1.68185842 C9.3261924,4.26223563 7.85615932,11.2214348 7.85615932,11.2214348 L7.82907483,11.1407929 C7.51848856,10.2260877 4.57829832,1.82999908 1.16281721,1.41600137 C-0.928646431,1.16249063 0.187849196,0.814628138 1.49884184,0.56663504 L1.73867652,0.522689111 C2.62100939,0.365906227 3.50861468,0.258741285 3.50861468,0.258741285 L3.00817788,0.258741285 C3.00817788,0.258741285 4.46257232,-0.898518801 6.90220169,1.68185842 Z"></path></clipPath><clipPath id="i12"><path d="M2.50372691,0.0078602393 C4.16142379,0.195524037 6.66360776,3.1668675 6.28828016,6.46662261 C5.92859122,9.75073907 2.83213856,12.1121752 1.19008033,11.94015 C-0.4519779,11.7524862 -0.0297343554,9.09391577 0.32995459,5.80979932 C0.689643535,2.51004421 0.861668683,-0.164164909 2.50372691,0.0078602393 Z"></path></clipPath><clipPath id="i13"><path d="M2.50372691,0.0078602393 C2.70181648,0.0287117724 2.91033181,0.0912663716 3.1292729,0.195524037 C2.20659257,0.852347329 2.03456742,3.1355902 1.73743307,5.80979932 C1.40902143,8.76550413 1.04933248,11.2051335 2.15967662,11.8150408 C1.81562632,11.9245114 1.48721468,11.9714273 1.19008033,11.94015 C-0.4519779,11.7524862 -0.0297343554,9.09391577 0.32995459,5.80979932 C0.689643535,2.51004421 0.861668683,-0.164164909 2.50372691,0.0078602393 Z"></path></clipPath><clipPath id="i14"><path d="M5.99321609,5.80979932 C6.35290503,9.09391577 6.77514858,11.7524862 5.13309035,11.94015 C3.49103212,12.1121752 0.394579458,9.75073907 0.0348905129,6.46662261 C-0.324798433,3.1668675 2.17738554,0.195524037 3.81944376,0.0078602393 C5.46150199,-0.164164909 5.63352714,2.51004421 5.99321609,5.80979932 Z"></path></clipPath><clipPath id="i15"><path d="M2.79931831,5.80979932 C3.15900726,9.09391577 3.5812508,11.7524862 1.93919258,11.94015 C1.65769688,11.9714273 1.31364658,11.9245114 0.969596288,11.8150408 C2.09557907,11.2051335 1.72025148,8.76550413 1.39183983,5.80979932 C1.09470549,3.1355902 0.922680338,0.852347329 0,0.195524037 C0.218941097,0.0912663716 0.427456428,0.0287117724 0.625545992,0.0078602393 C2.26760422,-0.164164909 2.43962937,2.51004421 2.79931831,5.80979932 Z"></path></clipPath><clipPath id="i16"><path d="M14.7790711,0 C20.5028169,0 24.6470591,1.70461283 27.0710498,5.05128389 C31.2338893,10.7858077 29.0636868,19.3919943 28.5113933,21.2706664 L28.4664706,21.4206663 C28.4329917,21.5302541 28.409845,21.6007794 28.4003351,21.6282527 L27.3994615,21.3154797 C27.4307388,21.2060091 30.4959141,11.5569622 26.2109241,5.67682988 C23.9902358,2.61165452 20.143128,1.06342819 14.7790711,1.06342819 C9.4150142,1.06342819 5.56790635,2.61165452 3.34721808,5.67682988 C-0.93777197,11.5726009 2.14304204,21.2060091 2.17431934,21.299841 L1.1578071,21.6282527 C1.0326979,21.2216478 -2.09503206,11.3849371 2.48709234,5.05128389 C4.92672171,1.70461283 9.05532525,0 14.7790711,0 Z"></path></clipPath><clipPath id="i17"><path d="M12.1853722,0 C17.1428242,0 21.0212094,1.25109198 23.7266958,3.69072135 C24.3678804,4.28499005 24.4147964,5.28586363 23.8361663,5.92704827 C23.2418976,6.58387157 22.241024,6.63078752 21.5842008,6.03651882 C19.4886217,4.1442422 16.3296144,3.17464591 12.1853722,3.17464591 C7.96293678,3.17464591 4.77265222,4.1755195 2.67707315,6.14598937 C2.36430015,6.44312372 1.9733339,6.58387157 1.58236766,6.58387157 C1.16012411,6.58387157 0.73788057,6.41184642 0.425107574,6.08343477 C-0.169161119,5.44225013 -0.137883819,4.44137654 0.503300823,3.84710785 C3.19314859,1.29800793 7.13408834,0 12.1853722,0 Z"></path></clipPath><clipPath id="i18"><path d="M12.2294241,0 L12.948802,0.0156386498 C12.948802,0.0938318988 12.8862474,2.06430177 11.2441892,4.0504103 C9.74287883,5.86449368 6.58387157,8.0069887 0,8.0069887 L0,7.30324946 C4.98872929,7.30324946 8.69508929,6.02088017 10.6968365,3.59688945 C12.1981468,1.81408338 12.2294241,0.0156386498 12.2294241,0 Z"></path></clipPath><clipPath id="i19"><path d="M2.29888152,0 C3.56561215,0 4.59776304,0.625545992 4.59776304,1.40747848 C4.59776304,2.18941097 3.56561215,2.81495696 2.29888152,2.81495696 C1.03215089,2.81495696 0,2.18941097 0,1.40747848 C0,0.625545992 1.03215089,0 2.29888152,0 Z"></path></clipPath></defs><g transform="translate(-285.0 -562.0)"><g clip-path="url(#i0)"><g transform="translate(285.4592075540204 562.0)"><g clip-path="url(#i1)"><polygon points="0,0 60,0 60,60 0,60 0,0" stroke="none" fill="#DFF6F9"></polygon><g transform="translate(-0.45920755402039504 7.0000000000003055)"><g transform="translate(0.0 44.06971514053225)"><g clip-path="url(#i2)"><polygon points="0.459207554,0 60,0 60,8.93028486 0.459207554,8.93028486 0.459207554,0" stroke="none" fill="#7BDCE6"></polygon></g></g><g transform="translate(13.81038424218605 0.0)"><g transform="translate(8.7143411527139 33.95150871898343)"><g clip-path="url(#i3)"><polygon points="0,0 15.5291793,0 15.5291793,15.5291793 0,15.5291793 0,0" stroke="none" fill="#FFDEA5"></polygon></g></g><g transform="translate(9.418080393779885 33.95150871898344)"><g clip-path="url(#i4)"><polygon points="0,0 14.1217008,0 14.1217008,10.1182064 0,10.1182064 0,0" stroke="none" fill="#FFEBC7" style="mix-blend-mode:multiply"></polygon></g></g><g transform="translate(4.3042419086996215 8.835837137828547)"><g clip-path="url(#i5)"><polygon points="0,0 23.6456385,0 23.6456385,30.9958039 0,30.9958039 0,0" stroke="none" fill="#FFDEA5"></polygon></g></g><g transform="translate(7.838576763831782 8.069543297556638)"><g clip-path="url(#i6)"><polygon points="0,0 16.5926074,0 16.5926074,8.28848439 0,8.28848439 0,0" stroke="none" fill="#2F302F"></polygon></g></g><g transform="translate(3.737373164656674 9.993097223137058)"><g clip-path="url(#i7)"><polygon points="2.22044605e-15,0 6.74413542,0 6.74413542,16.3580277 2.22044605e-15,16.3580277 2.22044605e-15,0" stroke="none" fill="#2F302F"></polygon></g></g><g transform="translate(21.77261373693829 9.993097223136997)"><g clip-path="url(#i8)"><polygon points="0,0 6.74450346,0 6.74450346,16.3580277 0,16.3580277 0,0" stroke="none" fill="#2F302F"></polygon></g></g><g transform="translate(6.586317758394214 5.326754276446991)"><g clip-path="url(#i9)"><polygon points="2.68188249e-15,1.77635684e-15 21.4104786,1.77635684e-15 21.4104786,11.7506513 2.68188249e-15,11.7506513 2.68188249e-15,1.77635684e-15" stroke="none" fill="#2F302F"></polygon></g></g><g transform="translate(3.3465405336520258 9.734355938561288)"><g clip-path="url(#i10)"><polygon points="2.88657986e-15,-6.66133815e-16 8.3042137,-6.66133815e-16 8.3042137,11.2214348 2.88657986e-15,11.2214348 2.88657986e-15,-6.66133815e-16" stroke="none" fill="#2F302F"></polygon></g></g><g transform="translate(20.469048680771934 9.734355938561295)"><g clip-path="url(#i11)"><polygon points="-6.88338275e-15,-7.77156117e-16 8.29778525,-7.77156117e-16 8.29778525,11.2214348 -6.88338275e-15,11.2214348 -6.88338275e-15,-7.77156117e-16" stroke="none" fill="#2F302F"></polygon></g></g><g transform="translate(26.05606083833044 20.63515749863211)"><g clip-path="url(#i12)"><polygon points="-4.21884749e-15,4.4408921e-15 6.32610088,4.4408921e-15 6.32610088,11.9489747 -4.21884749e-15,11.9489747 -4.21884749e-15,4.4408921e-15" stroke="none" fill="#00C1D3"></polygon></g></g><g transform="translate(26.05606083833044 20.63515749863214)"><g clip-path="url(#i13)"><polygon points="-4.6629367e-15,4.4408921e-15 3.1292729,4.4408921e-15 3.1292729,11.9496622 -4.6629367e-15,11.9496622 -4.6629367e-15,4.4408921e-15" stroke="none" fill="#7BDCE6"></polygon></g></g><g transform="translate(0.0 20.63515749863214)"><g clip-path="url(#i14)"><polygon points="-2.97678548e-15,2.66280054e-15 6.32317068,2.66280054e-15 6.32317068,11.9489747 -2.97678548e-15,11.9489747 -2.97678548e-15,2.66280054e-15" stroke="none" fill="#00C1D3"></polygon></g></g><g transform="translate(3.193897772796845 20.63515749863223)"><g clip-path="url(#i15)"><polygon points="0,2.66106581e-15 3.1292729,2.66106581e-15 3.1292729,11.9496622 0,11.9496622 0,2.66106581e-15" stroke="none" fill="#7BDCE6"></polygon></g></g><g transform="translate(1.3479900783768226 1.0634281864997774)"><g clip-path="url(#i16)"><polygon points="4.4408921e-15,0 29.5695671,0 29.5695671,21.6282527 4.4408921e-15,21.6282527 4.4408921e-15,0" stroke="none" fill="#00C1D3"></polygon></g></g><g transform="translate(3.9416889342737687 0.0)"><g clip-path="url(#i17)"><polygon points="1.77635684e-15,0 24.2407402,0 24.2407402,6.58387157 1.77635684e-15,6.58387157 1.77635684e-15,0" stroke="none" fill="#00C1D3"></polygon></g></g><g transform="translate(17.42506909213065 29.82290517139633)"><g clip-path="url(#i18)"><polygon points="0,0 12.948802,0 12.948802,8.0069887 0,8.0069887 0,0" stroke="none" fill="#7BDCE6"></polygon></g></g><g transform="translate(14.59447347806599 35.95325589357117)"><g clip-path="url(#i19)"><polygon points="0,0 4.59776304,0 4.59776304,2.81495696 0,2.81495696 0,0" stroke="none" fill="#7BDCE6"></polygon></g></g></g></g></g></g></g></g></svg>